<?xml version="1.0" standalone="no"?>
<!DOCTYPE svg PUBLIC "-//W3C//DTD SVG 20010904//EN"
 "http://www.w3.org/TR/2001/REC-SVG-20010904/DTD/svg10.dtd">
<svg version="1.0" xmlns="http://www.w3.org/2000/svg"
 width="128.000000pt" height="38.000000pt" viewBox="0 0 128.000000 38.000000"
 preserveAspectRatio="xMidYMid meet">
<g transform="translate(0.000000,38.000000) scale(0.100000,-0.100000)"
fill="#40964C" stroke="none">
<path d="M10 366 c0 -8 9 -51 19 -95 l19 -80 -24 -93 c-13 -51 -24 -94 -24
-95 0 -2 286 -3 635 -3 545 0 635 2 635 14 0 8 -9 51 -19 95 l-19 80 24 93
c13 51 24 94 24 96 0 1 -286 2 -635 2 -545 0 -635 -2 -635 -14z"/>
</g>
</svg>
